HIERARCHY
ROOT Hips
{
    OFFSET 0.000000 0.000000 0.000000
    CHANNELS 6 Xposition Yposition Zposition Zrotation Xrotation Yrotation
    JOINT Spine
    {
        OFFSET -0.000000 7.236184 0.000000
        CHANNELS 3 Zrotation Xrotation Yrotation
        JOINT Spine1
        {
            OFFSET -0.000000 20.420147 0.000000
            CHANNELS 3 Zrotation Xrotation Yrotation
            JOINT Neck
            {
                OFFSET -0.000000 20.336288 1.848754
                CHANNELS 3 Zrotation Xrotation Yrotation
                JOINT Head
                {
                    OFFSET -0.000000 12.354461 -1.764923
                    CHANNELS 3 Zrotation Xrotation Yrotation
                    End Site
                    {
                        OFFSET -0.000000 22.061537 0.000000
                    }
                }
            }
            JOINT LeftShoulder
            {
                OFFSET 3.573296 18.396038 -0.314103
                CHANNELS 3 Zrotation Xrotation Yrotation
                JOINT LeftArm
                {
                    OFFSET 10.880760 0.000000 0.000000
                    CHANNELS 3 Zrotation Xrotation Yrotation
                    JOINT LeftForeArm
                    {
                        OFFSET 27.185530 0.000000 0.000000
                        CHANNELS 3 Zrotation Xrotation Yrotation
                        JOINT LeftHand
                        {
                            OFFSET 27.825975 0.000000 0.000000
                            CHANNELS 3 Zrotation Xrotation Yrotation
                            End Site
                            {
                                OFFSET 13.236923 0.000000 0.000000
                            }
                        }
                    }
                }
            }
            JOINT RightShoulder
            {
                OFFSET -3.474926 18.396038 -0.314103
                CHANNELS 3 Zrotation Xrotation Yrotation
                JOINT RightArm
                {
                    OFFSET -10.880760 0.000000 0.000000
                    CHANNELS 3 Zrotation Xrotation Yrotation
                    JOINT RightForeArm
                    {
                        OFFSET -27.185530 0.000000 0.000000
                        CHANNELS 3 Zrotation Xrotation Yrotation
                        JOINT RightHand
                        {
                            OFFSET -27.825975 0.000000 0.000000
                            CHANNELS 3 Zrotation Xrotation Yrotation
                            End Site
                            {
                                OFFSET -13.236923 0.000000 0.000000
                            }
                        }
                    }
                }
            }
        }
    }
    JOINT LeftUpLeg
    {
        OFFSET 8.824615 0.000000 0.000000
        CHANNELS 3 Zrotation Xrotation Yrotation
        JOINT LeftLeg
        {
            OFFSET -0.000000 -35.111282 0.000000
            CHANNELS 3 Zrotation Xrotation Yrotation
            JOINT LeftFoot
            {
                OFFSET -0.000000 -42.324711 0.000000
                CHANNELS 3 Zrotation Xrotation Yrotation
                JOINT LeftToeBase
                {
                    OFFSET -0.000000 -5.735999 13.236923
                    CHANNELS 3 Zrotation Xrotation Yrotation
                    End Site
                    {
                        OFFSET -0.000000 0.000000 3.529846
                    }
                }
            }
        }
    }
    JOINT RightUpLeg
    {
        OFFSET -8.824615 0.000000 0.000000
        CHANNELS 3 Zrotation Xrotation Yrotation
        JOINT RightLeg
        {
            OFFSET -0.000000 -35.111282 0.000000
            CHANNELS 3 Zrotation Xrotation Yrotation
            JOINT RightFoot
            {
                OFFSET -0.000000 -42.324711 0.000000
                CHANNELS 3 Zrotation Xrotation Yrotation
                JOINT RightToeBase
                {
                    OFFSET -0.000000 -5.735999 13.236923
                    CHANNELS 3 Zrotation Xrotation Yrotation
                    End Site
                    {
                        OFFSET -0.000000 0.000000 3.529846
                    }
                }
            }
        }
    }
}
MOTION
Frames:    5
Frame Time:    0.008333
-1.840338    81.208862    106.003784    3.751258    -2.404185    -123.535194    -2.743690    -12.718885    -0.477901    0.443745    10.877997    -0.214346    0.433152    26.375401    -18.145653    -2.628871    -5.202927    -19.299805    5.417084    10.498137    -10.824250    -28.739305    34.646709    -69.664825    -1.508094    -28.950405    -131.201050    36.104942    -27.190548    16.208197    7.023616    16.977226    -0.166343    40.172203    -1.088276    32.854637    -4.163811    -32.396496    133.060638    -17.989922    -23.367596    -3.874192    3.086964    -28.229277    -10.638182    4.423450    28.912006    -4.778410    -11.630956    -4.235813    -16.906996    2.351349    1.012949    -2.601600    -6.084138    -0.506932    -17.710939    17.309765    29.298845    -26.127949    0.000000    0.000000    0.000000    0.000000    0.000000    0.000000    
-1.944822    81.223145    106.001869    3.868563    -2.402548    -122.016624    -2.807781    -12.725202    -0.342713    0.252593    10.881767    -0.053462    0.084868    26.605736    -18.063305    -2.695089    -5.332478    -19.263224    5.484978    10.414601    -10.278741    -28.280603    34.739967    -69.758652    -1.629239    -28.664986    -131.278183    36.030155    -27.150520    16.223362    7.032482    17.137579    -0.754387    39.611790    -1.234300    30.990650    -4.797464    -32.623058    131.807297    -17.779970    -22.611738    -3.549045    2.608382    -28.510021    -11.144728    4.511187    28.725840    -5.605423    -11.677052    -4.028179    -17.123037    2.487055    1.042081    -2.751598    -5.910572    -0.259925    -17.735332    17.488390    29.132963    -26.401051    0.000000    0.000000    0.000000    0.000000    0.000000    0.000000    
-2.052605    81.242172    106.002686    3.991277    -2.414647    -120.552917    -2.856128    -12.733144    -0.202440    0.021066    10.882700    0.114515    -0.264141    26.822342    -17.942919    -2.735093    -5.481580    -19.184587    5.562101    10.331201    -9.727127    -27.860840    34.828636    -69.819687    -1.724825    -28.401031    -131.350021    35.909527    -27.099575    16.204657    6.966493    17.237244    -1.335534    39.073227    -1.419564    29.133318    -5.429250    -32.821720    130.473846    -17.579382    -21.900419    -3.259364    2.137287    -28.767431    -11.649518    4.567869    28.516924    -6.367444    -11.716120    -3.814701    -17.336784    2.617669    1.067013    -2.895964    -5.746335    -0.037590    -17.710297    17.664577    28.962185    -26.678053    0.000000    0.000000    0.000000    0.000000    0.000000    0.000000    
-2.162821    81.265671    106.006226    4.121892    -2.438154    -119.144753    -2.887818    -12.740965    -0.056409    -0.249159    10.874406    0.289875    -0.611609    27.030348    -17.788954    -2.751346    -5.644728    -19.068556    5.644947    10.251405    -9.174634    -27.480865    34.913452    -69.847153    -1.797014    -28.155582    -131.414719    35.750210    -27.035978    16.155516    6.827674    17.278049    -1.902475    38.536674    -1.634360    27.282883    -6.064557    -32.997780    129.051514    -17.380781    -21.232241    -3.001435    1.677962    -29.004131    -12.151870    4.594807    28.287437    -7.065158    -11.747767    -3.596758    -17.547495    2.742406    1.088674    -3.033836    -5.590543    0.160447    -17.646257    17.837902    28.785868    -26.959372    0.000000    0.000000    0.000000    0.000000    0.000000    0.000000    
-2.274433    81.293251    106.012299    4.261676    -2.470666    -117.797707    -2.903846    -12.745809    0.096417    -0.553173    10.848203    0.473324    -0.952338    27.237915    -17.608271    -2.746873    -5.818814    -18.921961    5.729441    10.179710    -8.632206    -27.145092    34.994911    -69.838348    -1.848018    -27.925026    -131.469788    35.561443    -26.956942    16.081030    6.620891    17.262417    -2.446620    37.982155    -1.864450    25.442938    -6.712493    -33.160595    127.530403    -17.174068    -20.604067    -2.770417    1.235821    -29.221508    -12.647406    4.594057    28.040073    -7.699113    -11.771286    -3.376744    -17.753981    2.860057    1.107916    -3.163871    -5.443019    0.334661    -17.554157    18.006784    28.604155    -27.240971    0.000000    0.000000    0.000000    0.000000    0.000000    0.000000    
